<svg width="18" height="18" viewBox="0 0 18 18" fill="none" xmlns="http://www.w3.org/2000/svg">
<path d="M17.786 16.543L13.757 12.514C14.829 11.186 15.429 9.514 15.429 7.714C15.429 3.471 11.957 0 7.714 0C3.471 0 0 3.471 0 7.714C0 11.957 3.471 15.429 7.714 15.429C9.514 15.429 11.186 14.786 12.514 13.757L16.543 17.786L17.786 16.543ZM7.757 13.714C4.457 13.714 1.757 11.014 1.757 7.714C1.757 4.414 4.457 1.714 7.757 1.714C11.057 1.714 13.757 4.414 13.757 7.714C13.757 11.014 11.057 13.714 7.757 13.714Z" fill="black"/>
</svg>
